<svg xmlns="http://www.w3.org/2000/svg" viewBox="0 0 136.43 110.05"><defs><style>.cls-1{fill:#597fc0;}.cls-2{fill:#fff;}.cls-3{fill:#bcbec0;}.cls-4{fill:#f58c7b;}.cls-5{fill:#fbc1a4;}.cls-6{fill:#cb4553;}.cls-7{fill:#dd5764;}.cls-8{fill:#f9b092;}.cls-9{fill:#f79d7d;}.cls-10{fill:#403433;}.cls-11{fill:#253f7a;}.cls-12{fill:#74c0eb;}.cls-13,.cls-14{fill:none;stroke:#fff;stroke-miterlimit:10;stroke-width:0.25px;}.cls-14{stroke-dasharray:1.01 1.01;}</style></defs><title>Asset 6</title><g id="Layer_2" data-name="Layer 2"><g id="Layer_1-2" data-name="Layer 1"><path class="cls-1" d="M112.16,77.16a32.47,32.47,0,0,1-2.68,13.29,30,30,0,0,1-7.52,10.4,34.47,34.47,0,0,1-11.58,6.71,44.1,44.1,0,0,1-14.83,2.38,44.73,44.73,0,0,1-14.9-2.38A33.51,33.51,0,0,1,49,100.77a30.64,30.64,0,0,1-7.53-10.54,33.31,33.31,0,0,1-2.68-13.5A30.15,30.15,0,0,1,49.07,53.91a36.78,36.78,0,0,1,11.79-6.86,43.83,43.83,0,0,1,15.27-2.53A41.07,41.07,0,0,1,90.53,47a34.2,34.2,0,0,1,11.36,6.87,32.29,32.29,0,0,1,7.52,10.39A30.71,30.71,0,0,1,112.16,77.16Zm-22.53,0a13.53,13.53,0,0,0-4-10,13.79,13.79,0,0,0-10.06-4,13.64,13.64,0,0,0-5.61,1.16,15.58,15.58,0,0,0-4.52,3,13,13,0,0,0-3,4.48,13.77,13.77,0,0,0-1.08,5.34,13.88,13.88,0,0,0,4.1,10,13.82,13.82,0,0,0,4.52,3,14.45,14.45,0,0,0,5.61,1.08,13.88,13.88,0,0,0,5.53-1.08,14.61,14.61,0,0,0,4.45-3,13,13,0,0,0,3-4.48A14.52,14.52,0,0,0,89.63,77.16Z"/><path class="cls-1" d="M118.72,40.32l15.67,2,2,67.33H116.56Zm7.83-22.82a8.79,8.79,0,0,1,6.59,3A9.61,9.61,0,0,1,136,27.26q0,5.34-5.91,8.4a6.47,6.47,0,0,1-2.72.57,11.17,11.17,0,0,1-6.81-2.61A8,8,0,0,1,117.13,27q0-3.18,3.29-6.82A9.33,9.33,0,0,1,126.55,17.5Z"/><rect class="cls-2" x="19.75" y="68.52" width="1.63" height="1.88" rx="0.72"/><rect class="cls-3" x="19.86" y="68.65" width="1.41" height="1.62" rx="0.62"/><path class="cls-4" d="M28.25,36.12s-.17,2.93-.63,3.62,5.31,1.64,6.19,3.23,3.12-5.26,3.45-5.93S28.25,36.12,28.25,36.12Z"/><path class="cls-5" d="M40.06,31.32c.68-2.07,1.8-5,1.82-7.42h0a4.52,4.52,0,0,0-.74-2.77,6.66,6.66,0,0,0-3.08-2.48,7.21,7.21,0,0,0-8.43,1.2c-1.77,1.53-2.16,4.23-2.24,5.22-.66-.16-1.69,0-2.18,2.05-.74,3.19,1.16,3.94,1.68,4.28a6.76,6.76,0,0,0,5.2,7.43C38.1,40.38,38.92,34.81,40.06,31.32Z"/><path class="cls-6" d="M32.23,32.53a6.22,6.22,0,0,0,2.57,1.59s-.32,2.06-2.13,1.1S32.23,32.53,32.23,32.53Z"/><path class="cls-7" d="M33.47,34.06a4.75,4.75,0,0,0-.34-.76,7.05,7.05,0,0,1-.9-.77s-1.36,1.74.44,2.69a1.71,1.71,0,0,0,1,.24A5,5,0,0,0,33.47,34.06Z"/><path class="cls-2" d="M34.16,33.91a7.23,7.23,0,0,1-1.93-1.38,2.56,2.56,0,0,0-.34.61A9.28,9.28,0,0,0,34,34.48C34,34.29,34.09,34.1,34.16,33.91Z"/><path class="cls-8" d="M26.35,26.27a4.63,4.63,0,0,0-.47,2.59,1.49,1.49,0,0,0,.15.74.38.38,0,0,0,.6.1.87.87,0,0,0,.08-.73c0-.25,0-.59.24-.65s.21,0,.31,0,.33-.36.37-.62a4.79,4.79,0,0,0,0-1.07c0-.34-.16-.72-.45-.82S26.55,26,26.35,26.27Z"/><path class="cls-9" d="M35.25,32.25a.27.27,0,0,1,0,.3.6.6,0,0,1-.42.26.49.49,0,0,1-.44-.12.26.26,0,0,1-.07-.29.68.68,0,0,1,.47-.25A.57.57,0,0,1,35.25,32.25Z"/><path class="cls-10" d="M32.24,28.3a.91.91,0,0,0,.41,1.18.84.84,0,0,0,1.08-.55.9.9,0,0,0-.41-1.18A.84.84,0,0,0,32.24,28.3Z"/><path class="cls-10" d="M36.28,29.75a.92.92,0,0,0,.42,1.19.85.85,0,0,0,1.08-.56.91.91,0,0,0-.41-1.18A.85.85,0,0,0,36.28,29.75Z"/><path class="cls-10" d="M32.61,25.94c.42.63,2.92.69,2.86-.28S31.89,24.87,32.61,25.94Z"/><path class="cls-10" d="M36.85,26.77c.12.77,2.09,1.9,2.36,1S36.65,25.43,36.85,26.77Z"/><path class="cls-10" d="M45.71,21.06c.15-4-2.93-6.55-6.42-5.78-3.82.84-7.29-2.66-7.29-2.67a16,16,0,0,0,.34,2C29.78,14.48,29,15.93,29,15.93c-2.57-1-1,2.1-1,2.1-1.71.93-1,7-1,7,1.86.1,1.11,3.89,1.11,3.89l.86,0,.68-2c1.83-.6,2.27-4.08,2.27-4.08,0,.23.92.44,1.07.47.83.19,1.66-.49,2.48-.36s1.56,1.18,2.29,1.76A5.69,5.69,0,0,0,40.7,26,4.86,4.86,0,0,0,45.71,21.06Z"/><path class="cls-11" d="M40.69,105.17c.84,3.55-3.5,2.89-4.73.27L26.92,86l-5.65-4.82v24.4h-4A257,257,0,0,1,13.65,71c0-1,0-1.9,0-2.84,0-11.31,1.4-21.75,6.17-25.57,0,0,5.06-7,17.56,0v7.22l-7.29,8.59s-1.74,6-2.37,9.76a8.59,8.59,0,0,0-.17,2.6l.14.24Z"/><path class="cls-5" d="M53.84,26.71a16.19,16.19,0,0,0-2.09-2.17,13.42,13.42,0,0,0-5.42-2.94A25.7,25.7,0,0,0,43.62,21a5.6,5.6,0,0,0-1.74-.28,9,9,0,0,0-3.64.07A5.72,5.72,0,0,1,36.9,21a8.75,8.75,0,0,0-2.08.07c-.14.15.45.68,1.17.62a7.57,7.57,0,0,0,1.1.07c.3,0,1.09.24,1.87.23a4.36,4.36,0,0,1,1.87.6,3.08,3.08,0,0,1,.56.64,1.66,1.66,0,0,0,.77.81c5.17.2,7.66,3.54,9,5.13a3.66,3.66,0,0,1,1.22,2.71h0a4.08,4.08,0,0,0,.3,1.08,19.33,19.33,0,0,0,4.49-2S57,30.91,53.84,26.71Z"/><path class="cls-11" d="M60.86,39.94A15.27,15.27,0,0,1,56,43.43c-5.67,2.68-11.07,4.1-16.88,6.36-.95.37-8,2.06-9.41,1.3v-6.4c5.35-.73,18.49-6.46,22.66-8h0a3.42,3.42,0,0,0,.09-1.32h0a5.85,5.85,0,0,0-2.86-4.12,13.68,13.68,0,0,1,2.73-1.77c1.07-.54,2.18-1,3.28-1.44,3,1.9,4.77,5.14,6.37,8.48C62.71,37.93,61.67,39.05,60.86,39.94Z"/><path class="cls-12" d="M27.52,70.71l.14.24h-14c0-1,0-1.9,0-2.84H27.69A8.59,8.59,0,0,0,27.52,70.71Z"/><line class="cls-13" x1="13.62" y1="68.23" x2="13.94" y2="68.23"/><line class="cls-14" x1="14.58" y1="68.24" x2="27.17" y2="68.43"/><line class="cls-13" x1="27.49" y1="68.43" x2="27.81" y2="68.44"/><line class="cls-13" x1="13.47" y1="70.63" x2="13.79" y2="70.64"/><line class="cls-14" x1="14.43" y1="70.65" x2="27.02" y2="70.84"/><line class="cls-13" x1="27.35" y1="70.84" x2="27.67" y2="70.85"/><path class="cls-12" d="M40.71,105.4c-1.64,1.35-2.58,1.61-4,1.11,0,.37-.05.73,0,1.08a7.88,7.88,0,0,0,.16,1.2c.07.36.4.46.85.41s.6-.1.89-.13.65,0,.76.31a1.21,1.21,0,0,0,1.2.67,5.57,5.57,0,0,0,3.59-1.1,3.11,3.11,0,0,0,.33-.29c.43-.44.49-.81.09-1.07a5.15,5.15,0,0,0-1.23-.57,5,5,0,0,1-2.51-1.54A.44.44,0,0,0,40.71,105.4Z"/><rect class="cls-1" width="24.28" height="109.94"/></g></g></svg>