<svg xmlns="http://www.w3.org/2000/svg" viewBox="0 0 596.13 114.25"><defs><style>.cls-1{fill:#519dd6;}.cls-2{font-size:27.18px;font-family:Nastice-Regular, Nastice;}.cls-2,.cls-3{fill:#597fc0;}.cls-4{fill:#fff;}.cls-5{fill:#bcbec0;}.cls-6{fill:#f58c7b;}.cls-7{fill:#fbc1a4;}.cls-8{fill:#cb4553;}.cls-9{fill:#dd5764;}.cls-10{fill:#f9b092;}.cls-11{fill:#f79d7d;}.cls-12{fill:#403433;}.cls-13{fill:#253f7a;}.cls-14{fill:#74c0eb;}.cls-15,.cls-16{fill:none;stroke:#fff;stroke-miterlimit:10;stroke-width:0.25px;}.cls-16{stroke-dasharray:1.01 1.01;}</style></defs><title>Asset 1</title><g id="Layer_2" data-name="Layer 2"><g id="Layer_1-2" data-name="Layer 1"><path class="cls-1" d="M74,24.9H50.9v84.26h-28V24.9H0V1.45H74Z"/><path class="cls-1" d="M169.21,72.51a39.27,39.27,0,0,1-3.22,16A36.36,36.36,0,0,1,156.94,101,41.38,41.38,0,0,1,143,109.07a52.9,52.9,0,0,1-17.84,2.87,53.64,53.64,0,0,1-17.93-2.87,40.3,40.3,0,0,1-14-8.16,36.82,36.82,0,0,1-9.06-12.68A40.32,40.32,0,0,1,81,72,36.2,36.2,0,0,1,93.31,44.54a44.44,44.44,0,0,1,14.19-8.26,53,53,0,0,1,18.37-3,49.15,49.15,0,0,1,17.31,3,41.13,41.13,0,0,1,13.67,8.25A38.76,38.76,0,0,1,165.9,57,36.9,36.9,0,0,1,169.21,72.51Zm-27.1,0a16.29,16.29,0,0,0-4.84-12.08A17.48,17.48,0,0,0,118.43,57,18.94,18.94,0,0,0,113,60.69a15.87,15.87,0,0,0-3.63,5.39,16.7,16.7,0,0,0-1.29,6.43,16.83,16.83,0,0,0,10.37,15.72,17.23,17.23,0,0,0,6.74,1.3,16.58,16.58,0,0,0,6.65-1.3,17.73,17.73,0,0,0,5.36-3.56,15.73,15.73,0,0,0,3.63-5.39A17.56,17.56,0,0,0,142.11,72.51Z"/><path class="cls-1" d="M247.91,109.16H186.23V1.45h28V85.71h33.71Z"/><path class="cls-1" d="M337.55,77.37H283.17q0,16.34,16,16.33a13.77,13.77,0,0,0,12.34-7h25Q332.69,99.95,323,106t-23.71,6.08a52.21,52.21,0,0,1-17.55-2.77,39.38,39.38,0,0,1-13.38-7.82,33.57,33.57,0,0,1-8.51-12.16,41.38,41.38,0,0,1-2.95-16,45.73,45.73,0,0,1,2.69-16,34.22,34.22,0,0,1,7.9-12.51,35.82,35.82,0,0,1,12.77-8.07,48.33,48.33,0,0,1,17.29-2.87A47.81,47.81,0,0,1,314,36.63a34,34,0,0,1,12.59,7.91,35.83,35.83,0,0,1,8.08,12.59,46.1,46.1,0,0,1,2.87,16.77ZM313.4,62.43q-2.79-12.16-14.77-12.16a15.29,15.29,0,0,0-9.9,3.21,13.62,13.62,0,0,0-4.87,9Z"/><path class="cls-1" d="M395.92,57.22H381.15v51.94H355.26V57.22h-8.51V36h8.51V14h25.89V36h14.77Z"/><text class="cls-2" transform="translate(551.72 107.48)">.com</text><path class="cls-3" d="M524.1,77.16a32.47,32.47,0,0,1-2.68,13.29,30,30,0,0,1-7.52,10.4,34.47,34.47,0,0,1-11.58,6.71,44.15,44.15,0,0,1-14.83,2.38,44.83,44.83,0,0,1-14.91-2.38,33.7,33.7,0,0,1-11.65-6.79,30.49,30.49,0,0,1-7.52-10.54,33.31,33.31,0,0,1-2.68-13.5A30.15,30.15,0,0,1,461,53.91a36.67,36.67,0,0,1,11.79-6.86,43.83,43.83,0,0,1,15.27-2.53A41.11,41.11,0,0,1,502.47,47a34.31,34.31,0,0,1,11.36,6.87,32.29,32.29,0,0,1,7.52,10.39A30.71,30.71,0,0,1,524.1,77.16Zm-22.53,0a13.53,13.53,0,0,0-4-10,13.79,13.79,0,0,0-10.06-4,13.61,13.61,0,0,0-5.61,1.16,15.58,15.58,0,0,0-4.52,3,13,13,0,0,0-3,4.48,13.77,13.77,0,0,0-1.08,5.34,13.88,13.88,0,0,0,4.1,10,13.82,13.82,0,0,0,4.52,3,14.42,14.42,0,0,0,5.61,1.08A13.88,13.88,0,0,0,493,90.23a14.61,14.61,0,0,0,4.45-3,13,13,0,0,0,3-4.48A14.52,14.52,0,0,0,501.57,77.16Z"/><path class="cls-3" d="M530.66,40.32l15.66,2,2,67.33H528.5Zm7.83-22.82a8.8,8.8,0,0,1,6.59,3,9.6,9.6,0,0,1,2.83,6.75q0,5.34-5.9,8.4a6.47,6.47,0,0,1-2.72.57,11.18,11.18,0,0,1-6.82-2.61,8,8,0,0,1-3.4-6.58q0-3.18,3.29-6.82A9.31,9.31,0,0,1,538.49,17.5Z"/><rect class="cls-4" x="431.69" y="68.52" width="1.63" height="1.88" rx="0.72"/><rect class="cls-5" x="431.8" y="68.65" width="1.41" height="1.62" rx="0.62"/><path class="cls-6" d="M440.19,36.12s-.17,2.93-.64,3.62,5.32,1.64,6.2,3.23,3.12-5.26,3.45-5.93S440.19,36.12,440.19,36.12Z"/><path class="cls-7" d="M452,31.32c.68-2.07,1.8-5,1.82-7.42h0a4.59,4.59,0,0,0-.74-2.77A6.7,6.7,0,0,0,450,18.64a7.21,7.21,0,0,0-8.43,1.2c-1.76,1.53-2.15,4.23-2.24,5.22-.65-.16-1.69,0-2.17,2.05-.74,3.19,1.16,3.94,1.68,4.28a6.76,6.76,0,0,0,5.2,7.43C450,40.38,450.86,34.81,452,31.32Z"/><path class="cls-8" d="M444.17,32.53a6.23,6.23,0,0,0,2.56,1.59s-.31,2.06-2.12,1.1S444.17,32.53,444.17,32.53Z"/><path class="cls-9" d="M445.41,34.06a4.75,4.75,0,0,0-.34-.76,7.05,7.05,0,0,1-.9-.77s-1.37,1.74.44,2.69a1.71,1.71,0,0,0,1,.24A5,5,0,0,0,445.41,34.06Z"/><path class="cls-4" d="M446.1,33.91a7.23,7.23,0,0,1-1.93-1.38,2.56,2.56,0,0,0-.34.61,9.28,9.28,0,0,0,2.07,1.34C446,34.29,446,34.1,446.1,33.91Z"/><path class="cls-10" d="M438.29,26.27a4.55,4.55,0,0,0-.47,2.59,1.49,1.49,0,0,0,.15.74.38.38,0,0,0,.6.1,1,1,0,0,0,.08-.73c0-.25,0-.59.24-.65s.21,0,.31,0,.33-.36.37-.62a4.79,4.79,0,0,0,0-1.07c0-.34-.16-.72-.45-.82S438.49,26,438.29,26.27Z"/><path class="cls-11" d="M447.18,32.25a.26.26,0,0,1,0,.3.6.6,0,0,1-.42.26.48.48,0,0,1-.44-.12.24.24,0,0,1-.07-.29.66.66,0,0,1,.47-.25A.55.55,0,0,1,447.18,32.25Z"/><path class="cls-12" d="M444.18,28.3a.9.9,0,0,0,.41,1.18.84.84,0,0,0,1.08-.55.91.91,0,0,0-.41-1.18A.84.84,0,0,0,444.18,28.3Z"/><path class="cls-12" d="M448.22,29.75a.93.93,0,0,0,.41,1.19.85.85,0,0,0,1.08-.56.89.89,0,0,0-.41-1.18A.85.85,0,0,0,448.22,29.75Z"/><path class="cls-12" d="M444.55,25.94c.42.63,2.92.69,2.86-.28S443.83,24.87,444.55,25.94Z"/><path class="cls-12" d="M448.79,26.77c.12.77,2.08,1.9,2.36,1S448.59,25.43,448.79,26.77Z"/><path class="cls-12" d="M457.65,21.06c.14-4-2.93-6.55-6.42-5.78-3.82.84-7.29-2.66-7.29-2.67a16,16,0,0,0,.34,2c-2.56-.11-3.35,1.34-3.35,1.34-2.57-1-1,2.1-1,2.1-1.71.93-1,7-1,7,1.86.1,1.12,3.89,1.12,3.89l.86,0,.68-2c1.83-.6,2.27-4.08,2.27-4.08,0,.23.92.44,1.07.47.83.19,1.66-.49,2.48-.36s1.56,1.18,2.29,1.76A5.7,5.7,0,0,0,452.63,26,4.86,4.86,0,0,0,457.65,21.06Z"/><path class="cls-13" d="M452.63,105.17c.84,3.55-3.5,2.89-4.73.27l-9-19.43-5.65-4.82v24.4h-4A257,257,0,0,1,425.59,71c0-1,0-1.9,0-2.84,0-11.31,1.4-21.75,6.16-25.57,0,0,5.07-7,17.57,0v7.22L442,58.35s-1.73,6-2.36,9.76a8.59,8.59,0,0,0-.17,2.6l.14.24Z"/><path class="cls-7" d="M465.78,26.71a16.84,16.84,0,0,0-2.09-2.17,13.42,13.42,0,0,0-5.42-2.94,25.7,25.7,0,0,0-2.71-.59,5.65,5.65,0,0,0-1.74-.28,9,9,0,0,0-3.64.07,5.72,5.72,0,0,1-1.34.23,8.83,8.83,0,0,0-2.09.07c-.13.15.46.68,1.18.62a7.57,7.57,0,0,0,1.1.07c.3,0,1.09.24,1.87.23a4.31,4.31,0,0,1,1.86.6,3.35,3.35,0,0,1,.57.64,1.66,1.66,0,0,0,.77.81c5.17.2,7.66,3.54,9,5.13a3.66,3.66,0,0,1,1.22,2.71h0a4.08,4.08,0,0,0,.3,1.08,19.33,19.33,0,0,0,4.49-2S468.91,30.91,465.78,26.71Z"/><path class="cls-13" d="M472.8,39.94A15.27,15.27,0,0,1,468,43.43c-5.67,2.68-11.08,4.1-16.88,6.36-1,.37-8,2.06-9.41,1.3v-6.4c5.35-.73,18.49-6.46,22.66-8h0a3.13,3.13,0,0,0,.1-1.32h0a5.88,5.88,0,0,0-2.86-4.12,13.68,13.68,0,0,1,2.73-1.77c1.07-.54,2.18-1,3.28-1.44,3,1.9,4.77,5.14,6.37,8.48C474.65,37.93,473.61,39.05,472.8,39.94Z"/><path class="cls-14" d="M439.46,70.71l.14.24h-14c0-1,0-1.9,0-2.84h14.07A8.59,8.59,0,0,0,439.46,70.71Z"/><line class="cls-15" x1="425.56" y1="68.23" x2="425.88" y2="68.23"/><line class="cls-16" x1="426.52" y1="68.24" x2="439.11" y2="68.43"/><line class="cls-15" x1="439.43" y1="68.43" x2="439.75" y2="68.44"/><line class="cls-15" x1="425.41" y1="70.63" x2="425.73" y2="70.64"/><line class="cls-16" x1="426.37" y1="70.65" x2="438.96" y2="70.84"/><line class="cls-15" x1="439.28" y1="70.84" x2="439.6" y2="70.85"/><path class="cls-14" d="M452.65,105.4c-1.64,1.35-2.58,1.61-4,1.11,0,.37,0,.73,0,1.08a7.88,7.88,0,0,0,.16,1.2c.07.36.4.46.85.41s.6-.1.89-.13.65,0,.75.31a1.22,1.22,0,0,0,1.21.67,5.57,5.57,0,0,0,3.59-1.1l.33-.29c.43-.44.49-.81.09-1.07a5.15,5.15,0,0,0-1.23-.57,5,5,0,0,1-2.51-1.54Z"/><rect class="cls-3" x="411.94" width="24.28" height="109.94"/></g></g></svg>